<mxfile host="65bd71144e">
    <diagram id="XAoSIZgahHsXjcm3SAfe" name="Page-1">
        <mxGraphModel dx="819" dy="595" grid="1" gridSize="10" guides="1" tooltips="1" connect="1" arrows="1" fold="1" page="1" pageScale="1" pageWidth="827" pageHeight="1169" math="0" shadow="0">
            <root>
                <mxCell id="0"/>
                <mxCell id="1" parent="0"/>
                <mxCell id="2" value="Workspace" style="rounded=0;whiteSpace=wrap;html=1;verticalAlign=top;" vertex="1" parent="1">
                    <mxGeometry x="40" y="40" width="480" height="380" as="geometry"/>
                </mxCell>
                <mxCell id="4" value="ScrollBar" style="rounded=0;whiteSpace=wrap;html=1;" vertex="1" parent="1">
                    <mxGeometry x="150" y="120" width="70" height="280" as="geometry"/>
                </mxCell>
                <mxCell id="5" value="CreateNote" style="rounded=0;whiteSpace=wrap;html=1;" vertex="1" parent="1">
                    <mxGeometry x="245" y="120" width="70" height="280" as="geometry"/>
                </mxCell>
                <mxCell id="6" value="SideBar" style="rounded=0;whiteSpace=wrap;html=1;" vertex="1" parent="1">
                    <mxGeometry x="60" y="120" width="70" height="280" as="geometry"/>
                </mxCell>
                <mxCell id="7" value="EditNote" style="rounded=0;whiteSpace=wrap;html=1;verticalAlign=top;" vertex="1" parent="1">
                    <mxGeometry x="340" y="120" width="150" height="280" as="geometry"/>
                </mxCell>
                <mxCell id="8" value="Header" style="rounded=0;whiteSpace=wrap;html=1;verticalAlign=top;" vertex="1" parent="1">
                    <mxGeometry x="355" y="170" width="120" height="200" as="geometry"/>
                </mxCell>
                <mxCell id="9" value="Options" style="rounded=0;whiteSpace=wrap;html=1;" vertex="1" parent="1">
                    <mxGeometry x="375" y="240" width="80" height="60" as="geometry"/>
                </mxCell>
            </root>
        </mxGraphModel>
    </diagram>
</mxfile>